<svg id="Layer_1" data-name="Layer 1" xmlns="http://www.w3.org/2000/svg" xmlns:xlink="http://www.w3.org/1999/xlink" viewBox="0 0 494.59 350.85"><defs><style>.cls-1,.cls-3,.cls-4,.cls-5,.cls-7,.cls-9{fill:none;}.cls-2{clip-path:url(#clip-path);}.cls-3,.cls-4{stroke:#ebebeb;}.cls-3,.cls-4,.cls-5,.cls-7,.cls-9{stroke-linejoin:round;}.cls-3{stroke-width:0.53px;}.cls-4,.cls-5{stroke-width:1.07px;}.cls-5{stroke:#b3b3b3;}.cls-6{fill:#fff;}.cls-7{stroke:#fff;}.cls-7,.cls-9{stroke-linecap:round;stroke-width:0.71px;}.cls-8{fill:#4a708b;}.cls-8,.cls-9{opacity:0.75;}.cls-9{stroke:#4a708b;}.cls-10,.cls-27{font-size:11px;}.cls-10{fill:#7f7f7f;}.cls-10,.cls-25,.cls-27{font-family:Helvetica;}.cls-11{letter-spacing:0.01em;}.cls-12{letter-spacing:-0.02em;}.cls-13{letter-spacing:-0.02em;}.cls-14{letter-spacing:0.03em;}.cls-15{letter-spacing:-0.03em;}.cls-16{letter-spacing:-0.05em;}.cls-17{letter-spacing:-0.14em;}.cls-18{letter-spacing:0.01em;}.cls-19{letter-spacing:0em;}.cls-20{letter-spacing:0.03em;}.cls-21{letter-spacing:-0.03em;}.cls-22{letter-spacing:0em;}.cls-23{letter-spacing:-0.05em;}.cls-24{letter-spacing:-0.14em;}.cls-25{font-size:9px;fill:#4d4d4d;}.cls-26{letter-spacing:-0.03em;}</style><clipPath id="clip-path" transform="translate(-3.93 -5.48)"><rect class="cls-1" x="48.09" y="5.48" width="450.43" height="335.12"/></clipPath></defs><title>pay-gaps-slopegraph</title><g class="cls-2"><line class="cls-3" x1="44.16" y1="248.31" x2="494.59" y2="248.31"/><line class="cls-3" x1="44.16" y1="156.55" x2="494.59" y2="156.55"/><line class="cls-3" x1="44.16" y1="64.78" x2="494.59" y2="64.78"/><line class="cls-4" x1="44.16" y1="294.19" x2="494.59" y2="294.19"/><line class="cls-4" x1="44.16" y1="202.43" x2="494.59" y2="202.43"/><line class="cls-4" x1="44.16" y1="110.67" x2="494.59" y2="110.67"/><line class="cls-4" x1="44.16" y1="18.9" x2="494.59" y2="18.9"/><line class="cls-4" x1="167" y1="335.12" x2="167"/><line class="cls-4" x1="371.75" y1="335.12" x2="371.75"/><line class="cls-5" x1="167" y1="246.48" x2="371.75" y2="308.88"/><line class="cls-5" x1="167" y1="268.5" x2="371.75" y2="319.89"/><line class="cls-5" x1="167" y1="202.43" x2="371.75" y2="301.54"/><line class="cls-5" x1="167" y1="15.23" x2="371.75" y2="217.11"/><line class="cls-5" x1="167" y1="51.94" x2="371.75" y2="231.8"/><line class="cls-5" x1="167" y1="151.04" x2="371.75" y2="279.51"/><path class="cls-6" d="M166.85,252a4.09,4.09,0,1,1,4.08,4.09,4.1,4.1,0,0,1-4.08-4.09" transform="translate(-3.93 -5.48)"/><path class="cls-7" d="M166.85,252a4.09,4.09,0,1,1,4.08,4.09,4.1,4.1,0,0,1-4.08-4.09" transform="translate(-3.93 -5.48)"/><path class="cls-6" d="M371.59,314.36a4.09,4.09,0,1,1,4.09,4.09,4.1,4.1,0,0,1-4.09-4.09" transform="translate(-3.93 -5.48)"/><path class="cls-7" d="M371.59,314.36a4.09,4.09,0,1,1,4.09,4.09,4.1,4.1,0,0,1-4.09-4.09" transform="translate(-3.93 -5.48)"/><path class="cls-6" d="M166.85,274a4.09,4.09,0,1,1,4.08,4.09,4.1,4.1,0,0,1-4.08-4.09" transform="translate(-3.93 -5.48)"/><path class="cls-7" d="M166.85,274a4.09,4.09,0,1,1,4.08,4.09,4.1,4.1,0,0,1-4.08-4.09" transform="translate(-3.93 -5.48)"/><path class="cls-6" d="M371.59,325.37a4.09,4.09,0,1,1,4.09,4.09,4.1,4.1,0,0,1-4.09-4.09" transform="translate(-3.93 -5.48)"/><path class="cls-7" d="M371.59,325.37a4.09,4.09,0,1,1,4.09,4.09,4.1,4.1,0,0,1-4.09-4.09" transform="translate(-3.93 -5.48)"/><path class="cls-6" d="M166.85,207.91a4.09,4.09,0,1,1,4.08,4.09,4.1,4.1,0,0,1-4.08-4.09" transform="translate(-3.93 -5.48)"/><path class="cls-7" d="M166.85,207.91a4.09,4.09,0,1,1,4.08,4.09,4.1,4.1,0,0,1-4.08-4.09" transform="translate(-3.93 -5.48)"/><path class="cls-6" d="M371.59,307a4.09,4.09,0,1,1,4.09,4.08,4.1,4.1,0,0,1-4.09-4.08" transform="translate(-3.93 -5.48)"/><path class="cls-7" d="M371.59,307a4.09,4.09,0,1,1,4.09,4.08,4.1,4.1,0,0,1-4.09-4.08" transform="translate(-3.93 -5.48)"/><path class="cls-6" d="M166.85,20.71a4.09,4.09,0,1,1,4.08,4.09,4.1,4.1,0,0,1-4.08-4.09" transform="translate(-3.93 -5.48)"/><path class="cls-7" d="M166.85,20.71a4.09,4.09,0,1,1,4.08,4.09,4.1,4.1,0,0,1-4.08-4.09" transform="translate(-3.93 -5.48)"/><path class="cls-6" d="M371.59,222.59a4.09,4.09,0,1,1,4.09,4.09,4.1,4.1,0,0,1-4.09-4.09" transform="translate(-3.93 -5.48)"/><path class="cls-7" d="M371.59,222.59a4.09,4.09,0,1,1,4.09,4.09,4.1,4.1,0,0,1-4.09-4.09" transform="translate(-3.93 -5.48)"/><path class="cls-6" d="M166.85,57.42a4.09,4.09,0,1,1,4.08,4.09,4.1,4.1,0,0,1-4.08-4.09" transform="translate(-3.93 -5.48)"/><path class="cls-7" d="M166.85,57.42a4.09,4.09,0,1,1,4.08,4.09,4.1,4.1,0,0,1-4.08-4.09" transform="translate(-3.93 -5.48)"/><path class="cls-6" d="M371.59,237.28a4.09,4.09,0,1,1,4.09,4.08,4.1,4.1,0,0,1-4.09-4.08" transform="translate(-3.93 -5.48)"/><path class="cls-7" d="M371.59,237.28a4.09,4.09,0,1,1,4.09,4.08,4.1,4.1,0,0,1-4.09-4.08" transform="translate(-3.93 -5.48)"/><path class="cls-6" d="M166.85,156.52a4.09,4.09,0,1,1,4.08,4.09,4.1,4.1,0,0,1-4.08-4.09" transform="translate(-3.93 -5.48)"/><path class="cls-7" d="M166.85,156.52a4.09,4.09,0,1,1,4.08,4.09,4.1,4.1,0,0,1-4.08-4.09" transform="translate(-3.93 -5.48)"/><path class="cls-6" d="M371.59,285a4.09,4.09,0,1,1,4.09,4.09,4.1,4.1,0,0,1-4.09-4.09" transform="translate(-3.93 -5.48)"/><path class="cls-7" d="M371.59,285a4.09,4.09,0,1,1,4.09,4.09,4.1,4.1,0,0,1-4.09-4.09" transform="translate(-3.93 -5.48)"/><path class="cls-8" d="M167.91,252a3,3,0,1,1,3,3,3,3,0,0,1-3-3" transform="translate(-3.93 -5.48)"/><path class="cls-9" d="M167.91,252a3,3,0,1,1,3,3,3,3,0,0,1-3-3" transform="translate(-3.93 -5.48)"/><path class="cls-8" d="M372.65,314.36a3,3,0,1,1,3,3,3,3,0,0,1-3-3" transform="translate(-3.93 -5.48)"/><path class="cls-9" d="M372.65,314.36a3,3,0,1,1,3,3,3,3,0,0,1-3-3" transform="translate(-3.93 -5.48)"/><path class="cls-8" d="M167.91,274a3,3,0,1,1,3,3,3,3,0,0,1-3-3" transform="translate(-3.93 -5.48)"/><path class="cls-9" d="M167.91,274a3,3,0,1,1,3,3,3,3,0,0,1-3-3" transform="translate(-3.93 -5.48)"/><path class="cls-8" d="M372.65,325.37a3,3,0,1,1,3,3,3,3,0,0,1-3-3" transform="translate(-3.93 -5.48)"/><path class="cls-9" d="M372.65,325.37a3,3,0,1,1,3,3,3,3,0,0,1-3-3" transform="translate(-3.93 -5.48)"/><path class="cls-8" d="M167.91,207.91a3,3,0,1,1,3,3,3,3,0,0,1-3-3" transform="translate(-3.93 -5.48)"/><path class="cls-9" d="M167.91,207.91a3,3,0,1,1,3,3,3,3,0,0,1-3-3" transform="translate(-3.93 -5.48)"/><path class="cls-8" d="M372.65,307a3,3,0,1,1,3,3,3,3,0,0,1-3-3" transform="translate(-3.93 -5.48)"/><path class="cls-9" d="M372.65,307a3,3,0,1,1,3,3,3,3,0,0,1-3-3" transform="translate(-3.93 -5.48)"/><path class="cls-8" d="M167.91,20.71a3,3,0,1,1,3,3,3,3,0,0,1-3-3" transform="translate(-3.93 -5.48)"/><path class="cls-9" d="M167.91,20.71a3,3,0,1,1,3,3,3,3,0,0,1-3-3" transform="translate(-3.93 -5.48)"/><path class="cls-8" d="M372.65,222.59a3,3,0,1,1,3,3,3,3,0,0,1-3-3" transform="translate(-3.93 -5.48)"/><path class="cls-9" d="M372.65,222.59a3,3,0,1,1,3,3,3,3,0,0,1-3-3" transform="translate(-3.93 -5.48)"/><path class="cls-8" d="M167.91,57.42a3,3,0,1,1,3,3,3,3,0,0,1-3-3" transform="translate(-3.93 -5.48)"/><path class="cls-9" d="M167.91,57.42a3,3,0,1,1,3,3,3,3,0,0,1-3-3" transform="translate(-3.93 -5.48)"/><path class="cls-8" d="M372.65,237.28a3,3,0,1,1,3,3,3,3,0,0,1-3-3" transform="translate(-3.93 -5.48)"/><path class="cls-9" d="M372.65,237.28a3,3,0,1,1,3,3,3,3,0,0,1-3-3" transform="translate(-3.93 -5.48)"/><path class="cls-8" d="M167.91,156.52a3,3,0,1,1,3,3,3,3,0,0,1-3-3" transform="translate(-3.93 -5.48)"/><path class="cls-9" d="M167.91,156.52a3,3,0,1,1,3,3,3,3,0,0,1-3-3" transform="translate(-3.93 -5.48)"/><path class="cls-8" d="M372.65,285a3,3,0,1,1,3,3,3,3,0,0,1-3-3" transform="translate(-3.93 -5.48)"/><path class="cls-9" d="M372.65,285a3,3,0,1,1,3,3,3,3,0,0,1-3-3" transform="translate(-3.93 -5.48)"/><text class="cls-10" transform="translate(115.32 250.43)">Be<tspan class="cls-11" x="13.45" y="0">r</tspan><tspan class="cls-12" x="17.27" y="0">k</tspan><tspan x="22.55" y="0">el</tspan><tspan class="cls-13" x="31.11" y="0">e</tspan><tspan x="37.01" y="0" xml:space="preserve">y   </tspan></text><text class="cls-10" transform="translate(125.72 272.45)">Emo<tspan class="cls-14" x="22.62" y="0">r</tspan><tspan x="26.6" y="0" xml:space="preserve">y   </tspan></text><text class="cls-10" transform="translate(98.54 206.38)">Notre Dame</text><text class="cls-10" transform="translate(116.58 19.18)">Stan<tspan class="cls-15" x="22.63" y="0">f</tspan><tspan x="25.37" y="0" xml:space="preserve">ord   </tspan></text><text class="cls-10" transform="translate(121.7 55.89)">U.<tspan class="cls-16" x="11" y="0">P</tspan><tspan x="17.8" y="0" xml:space="preserve">enn   </tspan></text><text class="cls-10" transform="translate(137.36 154.99)"><tspan class="cls-17">Y</tspan><tspan x="5.81" y="0" xml:space="preserve">ale   </tspan></text><text class="cls-10" transform="translate(371.75 312.83)"><tspan xml:space="preserve">  Be</tspan><tspan class="cls-18" x="19.57" y="0">r</tspan><tspan class="cls-12" x="23.38" y="0">k</tspan><tspan class="cls-19" x="28.66" y="0">el</tspan><tspan class="cls-12" x="37.23" y="0">e</tspan><tspan x="43.12" y="0">y</tspan></text><text class="cls-10" transform="translate(371.75 323.84)"><tspan xml:space="preserve">  Emo</tspan><tspan class="cls-20" x="28.73" y="0">r</tspan><tspan x="32.71" y="0">y</tspan></text><text class="cls-10" transform="translate(371.75 305.49)"><tspan xml:space="preserve">  Notre Dame</tspan></text><text class="cls-10" transform="translate(371.75 221.06)"><tspan xml:space="preserve">  Stan</tspan><tspan class="cls-21" x="28.74" y="0">f</tspan><tspan class="cls-22" x="31.48" y="0">ord</tspan></text><text class="cls-10" transform="translate(371.75 235.74)"><tspan xml:space="preserve">  U.</tspan><tspan class="cls-23" x="17.11" y="0">P</tspan><tspan class="cls-19" x="23.9" y="0">enn</tspan></text><text class="cls-10" transform="translate(371.75 283.46)"><tspan xml:space="preserve">  </tspan><tspan class="cls-24" x="6.11" y="0">Y</tspan><tspan x="11.91" y="0">ale</tspan></text></g><text class="cls-25" transform="translate(19.72 297.43)">$75k</text><text class="cls-25" transform="translate(14.71 205.66)">$100k</text><text class="cls-25" transform="translate(14.71 113.9)">$125k</text><text class="cls-25" transform="translate(14.71 22.13)">$150k</text><text class="cls-25" transform="translate(158.25 346.52)">Men</text><text class="cls-25" transform="translate(356.38 346.52)"><tspan class="cls-26">W</tspan><tspan x="8.23" y="0">omen</tspan></text><text class="cls-27" transform="translate(9.45 232.06) rotate(-90)">Median Mid−career Sala<tspan class="cls-14" x="119.53" y="0">r</tspan><tspan x="123.52" y="0">y</tspan></text></svg>